<svg xmlns="http://www.w3.org/2000/svg" viewBox="0 0 518.46 423.01"><defs><style>.cls-1{fill:#fff;}</style></defs><title>trollface</title><g id="Vector_Graphics" data-name="Vector Graphics"><g id="Black"><path d="M266.67.58C253.11.67,239.56-.07,226,0c-24.27,0-48.56-.19-72.82.52a206.26,206.26,0,0,0-21,.89c-4.27.43-8.61,1.15-12.48,3.13a71.43,71.43,0,0,0-9.23,5.38A131.17,131.17,0,0,0,87.68,31.06a194,194,0,0,0-16.3,24.88c-5.51,9.66-9.49,20.17-15.93,29.3-5.26,7.93-12.2,14.54-19.22,20.89-2.16,1.82-3.64,4.26-5.76,6.12a162.47,162.47,0,0,0-22,26c-1.93,2.55-3.91,5.15-4.8,8.29-.17.58-.35,1.16-.56,1.74a47.92,47.92,0,0,0-1.4,6c-.09.21-.27.62-.37.82C.66,160.06-.23,165,.05,169.94c-.14,2.55.66,5,.69,7.55l.4.81a23.51,23.51,0,0,0,1.09,4.45c.06.27.2.8.27,1.06.4,1.14.77,2.28,1.14,3.44.47.92.92,1.86,1.39,2.78,3.06,5,5.55,10.35,9.08,15,2.44,2.9,4.38,6.2,7,8.93,2.33,2.53,4.39,5.3,6.74,7.82,5,5.76,10.89,10.65,15.44,16.77a118.43,118.43,0,0,1,14.21,23.54,109.45,109.45,0,0,0,14.43,23c5.12,6.5,11.22,12.11,17.16,17.85,7.26,6.5,14.19,13.48,22.42,18.78a526.87,526.87,0,0,0,46.38,26.45c10.54,5.44,21.82,9.24,32.46,14.48,9.69,4.36,19.24,9,28.83,13.59,15.68,7.73,31.4,15.45,47.81,21.53,5.85,2.38,12.36,1.79,18.33,3.77,6.1,2.44,12.5,4,18.81,5.83,5.18,1.83,10.55,3.1,15.8,4.74,6.86,2.23,13.94,3.66,20.91,5.49,5.21,1.12,10.49,1.94,15.74,2.84,6.54.56,13.08,1.19,19.64,1.25,5.65.39,11.32,0,17,.61,5.46.14,10.92,1,16.39.54,5.31-.43,10.65-.35,15.94-1,3.27-.52,6.5-1.29,9.77-1.86,4.4-.74,8.13-3.48,12.46-4.48,5.8-1.38,11.13-4.16,16.39-6.89,4.7-2.72,9.51-5.33,13.75-8.76,1.68-1.35,3.13-3,4.83-4.28,3.6-4.67,7.6-9.11,10.49-14.3,2.47-4.28,5.18-8.68,5.6-13.72.75-5.52.06-11.07-.16-16.6-2-25-2.53-50.12-2.89-75.21-.16-13.78-.46-27.59.2-41.37a61.6,61.6,0,0,1,3.55-20.53c5.05-12.79,13.4-24.14,17.15-37.47a49.14,49.14,0,0,0,1.24-7.6,191.34,191.34,0,0,0,.22-25.34c-.13-6.57-.78-13.29-3.41-19.38-2.35-6.13-6.62-11.27-11.11-16-3.31-3.57-7.83-5.64-11.27-9.07a34.31,34.31,0,0,1-7.81-10.33,58.11,58.11,0,0,1-3.76-15.88c-.22-3.09,0-6.26-.91-9.28-1.4-4.66-4.36-8.63-7.53-12.24a77.65,77.65,0,0,0-12-10.6,156.93,156.93,0,0,0-34.1-19.62c-13.86-5.66-28.61-8.6-43.29-11.19-14.22-2.4-28.51-4.3-42.83-6-11.63-1.38-23.33-1.82-35-2.31C292.28,1.16,279.47.82,266.67.58Z" transform="translate(0 0)"/></g><g id="Line_Art" data-name="Line Art"><path d="M262.73.64c7,.27,13.93.4,20.89.45,10.72.52,21.47.63,32.18,1.33,17.43.6,34.74,2.9,52,5.42,15.35,2.25,30.72,4.73,45.63,9.1A139.2,139.2,0,0,1,450.47,34.2c7,4.69,14,9.59,20.1,15.52,3.75,4.17,7.55,8.64,9.07,14.15,1,3.47.57,7.1,1.09,10.64a53.31,53.31,0,0,0,3.83,14.87c3.26,6.38,8.68,11.4,14.62,15.26,6.5,5.3,12.19,11.87,15.4,19.69,2.56,6,3.22,12.65,3.28,19.14a143.9,143.9,0,0,1,.29,17.5c-.42,4.63-.25,9.34-1.34,13.9-1.8,8.09-6,15.35-9.64,22.69s-8,14.65-9.87,22.77a80.62,80.62,0,0,0-1.43,10c-.66,14.11-.82,28.26-.34,42.39.33,10.54-.1,21.09.64,31.61.14,4.35,0,8.7.33,13,.46,4.68.11,9.42.67,14.1.31,10.93,2,21.81,1.75,32.76a26.66,26.66,0,0,1-3.58,12.85,86.44,86.44,0,0,1-14.4,19.73c-4,4.15-9.13,7-14.06,10-6,3.35-12.17,6.67-18.89,8.37-4.32,1.07-8.09,3.69-12.47,4.54-2.65.5-5.29,1-7.92,1.53-4.23,1-8.6.63-12.89,1.13-4,0-7.95.7-11.92.27-10.16-.65-20.32-1.3-30.5-1.24-7.18-.59-14.42-.74-21.49-2.22-8-1.05-15.71-3.37-23.54-5.22-12.7-3.61-25.35-7.4-38-11.22a50.37,50.37,0,0,0-15.31-3.5c-3.75-.39-7.24-1.9-10.74-3.19-7.76-3-15.39-6.41-23-9.91-21.73-10.31-43.16-21.29-65.32-30.66-4.14-1.62-8.26-3.33-12.25-5.3a496,496,0,0,1-50.63-28.48c-7.5-4.72-13.87-10.94-20.44-16.85-5-4.85-10.29-9.46-14.92-14.69A110,110,0,0,1,60.19,267c-3.13-6.08-5.81-12.41-9.5-18.2a96.14,96.14,0,0,0-15.21-19.23C29.9,224.14,25.15,218,19.83,212.38c-2.31-2.95-4.42-6-6.82-8.94-3-4.44-5.36-9.31-8.19-13.88A52.08,52.08,0,0,1,.18,172.31,70.73,70.73,0,0,1,3.76,146.5c1.18-4.18,4.3-7.33,6.62-10.88a192.69,192.69,0,0,1,13.09-16.26c3.79-4.12,8-7.86,11.75-12C42.09,101,49.14,94.7,54.56,87c5.71-7.82,9.69-16.69,14-25.31A199.56,199.56,0,0,1,88.84,30a144.83,144.83,0,0,1,18-17,66.31,66.31,0,0,1,14.36-8.9c5.65-2.27,11.81-2.53,17.79-3C153.71.32,168.42.54,183.11.25,195.85.22,208.6,0,221.34.16,235.14.23,248.94.59,262.73.64ZM162.92,11.11c-4.58-.09-9.13.34-13.7.38a100.78,100.78,0,0,0-18.1,1.8c-4.8,1-9.05,3.6-13.18,6.12A94.35,94.35,0,0,0,105,29.93,91.47,91.47,0,0,0,93.8,42.46,209.64,209.64,0,0,0,78,68.78c-2.25,4.57-4.37,9.21-6.65,13.77C67.55,89.6,64,97,58.31,102.78c-.8.68-1.69,2.44-.3,2.94,5.82,1.3,11.84.53,17.74,1,2.91.27,5.86-.17,8.73.46-6.74,1.29-13.66,1.32-20.45,2.39-3.24.43-6.45,1-9.66,1.64-3.67.93-7.61,1.57-10.65,4-7.41,5.75-13.38,13.1-19,20.54-4.24,6-8.69,12.24-10.27,19.57-1.62,6.69-1.17,13.7.29,20.37q.3,1.14.54,2.28A74.83,74.83,0,0,0,27.09,202.3c4.7,6.77,11,12.81,18.88,15.59,3.56,1.7,7.61,3,10.23,6.08-3.55.57-6.77-1.35-10.22-1.7.75,2.56,2.9,4.3,4.61,6.22a87.62,87.62,0,0,1,11.2,15.37C67.4,253,70.86,263.3,77.19,272c7.29,10.95,17.34,19.6,27,28.44a138.94,138.94,0,0,0,11.1,9.18c8,5.54,16.4,10.42,24.82,15.25,10.51,5.89,21.11,11.64,32.05,16.66,3.93,1.84,8,3.22,12,5,11.4,5,22.59,10.33,33.78,15.74,13.44,6.64,26.87,13.35,40.75,19,5.25,2,10.44,4.31,15.93,5.59,10.48,1.48,20.74,4.11,31,6.55,12.12,2.9,24.09,6.41,36.24,9.17l.32.17a244.57,244.57,0,0,0,30.08,5c7.72.66,15.46.87,23.2,1.26,12.43.09,24.95.77,37.28-1.17,9.49-1.55,18.35-5.62,26.8-10,9-4.53,16.14-12.06,21.81-20.25,3.06-5,6.31-10.15,6.88-16.1.5-6.63-.57-13.22-1.09-19.81-.88-8.28-1-16.6-1.47-24.9-.2-10.54-.76-21.05-.72-31.59,0-18.46-.09-36.91.12-55.37.39-7,1-14.08,3.49-20.67,4.57-12.17,12.17-23,16.39-35.28,2.76-8,2.62-16.52,2.49-24.84-.48-6.27-.94-12.64-2.89-18.67-1-3.19-3.14-5.77-5.18-8.33a99.52,99.52,0,0,0-9.37-9.34A70.51,70.51,0,0,1,476.61,99c-4.59-6.44-6.16-14.45-6.77-22.18a30.23,30.23,0,0,0-1.45-9.19,26.34,26.34,0,0,0-6.33-10.54c-7.19-6.62-15.54-11.82-24-16.66A158.77,158.77,0,0,0,410.77,28c-6.76-2.26-13.94-2.79-21-3.33-11.1-.38-22.23-.29-33.32.39-11.69.31-23.36,0-35-.68-17.17-1.17-34.19-3.8-51.33-5.14-12-1-24.09-2.2-36.15-1.32-11.88,1.16-23.79,3-35.1,6.91a305.52,305.52,0,0,0-59.37,28.71c-7.13,4.24-13.38,9.77-20.52,14a15,15,0,0,1-4,1.7c.64-2.22,2.78-3.37,4.38-4.83,8.18-6.43,17-12.08,25.71-17.67C154,41.08,163.14,35.48,172.82,31c18-7.7,36.88-14.24,56.58-15.43,16.23-1.19,32.53-.27,48.69,1.34,8.37,1.41,16.82,2.2,25.27,3,5.14.21,10.25.85,15.4.93l.34.25c15.47.6,30.94,1.76,46.44,1.41a23.39,23.39,0,0,0,6.18-.79c-.08-.44-.17-.88-.26-1.32-4.21-1.73-8.73-2.38-13.2-3.07-14.06-2-28.25-2.75-42.38-3.78-12.26-.48-24.51-1.29-36.77-1.5-8.84-.57-17.71-.3-26.56-.78C222.68,10.79,192.79,10.93,162.92,11.11Z" transform="translate(0 0)"/><path d="M283.88,34.39c-16.19-3.47-32.89-3.59-49.32-2.12-6.06.38-12.08,1.19-18.1,2-8.16,1.21-16.39,2.42-24.17,5.27A185.49,185.49,0,0,0,162.12,53c-11.67,7.1-23,15.35-31.18,26.43a6.84,6.84,0,0,0-1.34,2.92c2.88-1.09,5.18-3.2,7.47-5.18,4.63-4,8.66-8.73,13.6-12.42a142.17,142.17,0,0,1,30.64-17.49,129.54,129.54,0,0,1,31.53-9.34c20-3.3,40.53-5.13,60.72-2.17,7.14.94,14.18,2.53,21.33,3.44,25.29,3.17,50.91,2.93,76.29,1,8.3-.62,16.55-1.78,24.86-2.19a34,34,0,0,1,12.43.86c3.32,1.19,6,4.14,9.63,4.36,1.33.13.55-1.53.09-2a16.24,16.24,0,0,0-9.72-5.77c-6.77-1.16-13.63-.19-20.41.15q-17.74,2-35.59,2.78c-6.94.63-13.91.34-20.85.75-5.28-.25-10.58-.24-15.86-.57C305.09,37.56,294.38,36.58,283.88,34.39Z" transform="translate(0 0)"/><path d="M267.43,49.11c-6.69-1.69-13.67-1.72-20.53-1.82-7.89-.13-15.76.27-23.65.51-9.48.69-19.06,1.29-28.25,3.92a108.16,108.16,0,0,0-21.31,8.07,107.46,107.46,0,0,0-22.23,16.89c-2.58,2.63-5.38,5.21-6.94,8.63.27.32.52.65.77,1,3.33-1.7,6.08-4.33,8.72-6.94a95.89,95.89,0,0,1,14.49-12A66,66,0,0,1,181.44,60a121.16,121.16,0,0,1,35.5-8.89c11.29-.91,22.64-1.49,33.95-.66,5.61,0,11.32.53,16.88-.5C267.68,49.76,267.51,49.32,267.43,49.11Z" transform="translate(0 0)"/><path d="M263.21,57.07c-2-2-4.11-4-6.86-4.82,0,.32-.1,1-.13,1.29l-.43-.39a28.87,28.87,0,0,0,3.5,5.06,39.35,39.35,0,0,1,8.44,15.32c1,3.33,1.2,6.88,2.4,10.17a52.82,52.82,0,0,0,.24-9.74A24.83,24.83,0,0,0,263.21,57.07Z" transform="translate(0 0)"/><path d="M398,55.73c-7.68-3.68-16.41-3.11-24.65-2.35-10.67.93-21.38,1.77-31.95,3.64-2.92.56-5.9,1.17-8.46,2.77,0,.5,0,1-.05,1.5,2.91.56,5.82-.17,8.63-.92,6.58-1.41,13.29-2.08,20-2.91,8.48-.7,17-1.78,25.5-1.33,6.32.39,11.93,3.63,17.31,6.7,5.1,2.89,10.18,6.3,13.46,11.28,2.29,3.37,3.06,7.47,5.17,10.94l.94,0a21.45,21.45,0,0,0-4.26-14.89C414.17,63.21,405.91,59.36,398,55.73Z" transform="translate(0 0)"/><path d="M345.54,73.7a6.3,6.3,0,0,0,1.07-5.19c-3.45.42-5.09,3.88-6.17,6.76-2.77,7.73-1.62,16-.85,24,1-3.84.41-7.84,1.11-11.72C341.52,82.73,342.73,77.8,345.54,73.7Z" transform="translate(0 0)"/><path d="M272,104.81c2.05,2,4.3,3.92,5.47,6.58.94,2.7.51,5.65,0,8.4-1.08,2.8-3.37,4.91-5.62,6.82-4,3.54-8.69,6.23-13.17,9.14-10.55-4.48-20.46-10.52-31.49-13.88a101.93,101.93,0,0,0-40.17-4.16c-9,.62-17.59,3.62-26.58,3.91-4.94.1-10.06-2.2-12.65-6.51-1.52-3.3.83-6.73,2.62-9.41A53.31,53.31,0,0,1,175.65,88l1.34-.27.28-.24a134,134,0,0,1,38-4.72c9.37-.24,19,.63,27.64,4.44A114.82,114.82,0,0,1,272,104.81ZM223,94.6c-.73,2.25-.53,4.65-1.2,6.92-.46,2.11-1.7,4.14-1.17,6.38l1.29.78c1.18.13,2.36.2,3.54.26a40.2,40.2,0,0,1,7.44,1.65c5.53,2,10.56,5.06,16,7.26,3.53,1.42,7.22,3.57,11.15,2.64,1.82-.85,3.87-2.48,3.67-4.7.05-1.77-1.45-3-2.54-4.15-7.22-6.76-16.26-11.28-25.5-14.58C231.56,95.94,227.4,94.07,223,94.6Zm-61.28,15.06c-.35.54-.69,1.08-1.05,1.62a51.62,51.62,0,0,0,5.38-1.2,23.91,23.91,0,0,0,8.82-3.67,3.77,3.77,0,0,0,1.33-2C171,102,164.73,105.07,161.75,109.66Z" transform="translate(0 0)"/><path d="M419.19,106.19c1.3,1.54,2.73,3.5,2,5.64a9.68,9.68,0,0,1-7.1,5.57,191.67,191.67,0,0,1-25.5,3.42c-11.79,1.12-23.72,2.46-35,6.15-2.95,1.41-6.41,2.25-8.58,4.86-1.82,2.75-1.12,6.25-1.05,9.36.4,3.87.6,8,2.83,11.36,2,3.17,5.49,4.81,8.55,6.75,7.75,4.88,15.42,10,22.15,16.27,4.61,4.23,8.86,9.52,15.13,11.24a25.22,25.22,0,0,1,11.69,4.74c2.22,1.64,4.55,3.35,5.8,5.89-3.05.13-5.66-1.78-8.3-3a101.08,101.08,0,0,0-18-7.47c-2.25-.7-5.25-.78-6.65,1.5-1.21,1.84-3.38,4.84-5.81,2.86a4.47,4.47,0,0,0-6.25-.28c-8.19,5.84-13.91,14.52-22.19,20.26-4.14,2.89-9.43,2.19-14.16,1.78-4.27-1-9.1-2.51-11.36-6.61-2.29-3.59,1.91-9.33,6-7.77,2.45,1.13,4.26,3.68,7.15,3.8,3.76.05,7.27-1.9,10.15-4.18A58.27,58.27,0,0,0,355,181.35c2.11-4.86-1.27-10.25-5.34-12.85-5.12-1-9.23-4.61-12.62-8.4-3.22-3.6-4.1-8.59-4.15-13.27-.7-4.85.76-10.2-1.79-14.66-3.23-4.1-8.77-5-12.73-8.15-1.84-1.37-4.42-3.36-3.25-6,3.65-2.13,7.95-2.44,12.09-2.48,5.58-.42,10.78-3.1,15.1-6.57a63,63,0,0,1,14.57-8.88c5.92-2.62,12.44-3.32,18.82-3.92a147.57,147.57,0,0,1,19.84-.5c4.82.21,9.75.87,14.13,3A30.18,30.18,0,0,1,419.19,106.19Zm-37.07,1c0,.2.07.58.09.77A139,139,0,0,0,398,108c0-.2,0-.59,0-.78A49.38,49.38,0,0,0,382.12,107.17Z" transform="translate(0 0)"/><path d="M140.4,107.2a10.32,10.32,0,0,0-3.55,0c-6.42.9-12.92,1.56-19.15,3.43-.58,2.94,2.92,3.72,5,4.71a32.41,32.41,0,0,0,13.18,1.08c-1.41-1.28-3.51-1-5.24-1.54-1.39-.46-3.35-.19-4.08-1.72C130.94,110.72,135.9,109.48,140.4,107.2Z" transform="translate(0 0)"/><path d="M437.25,110.55a16.11,16.11,0,0,0-6.83-.51c-1.3.24-2,1.39-2.71,2.42a7.88,7.88,0,0,0,4,1.76,99.28,99.28,0,0,0,10.64.36c8.12.61,16.26-.73,24.38,0a14.76,14.76,0,0,1,9.14,4.32A53,53,0,0,0,486,127.52c2.15,1.4,4.59,2.43,6.36,4.34,5.25,5.29,7.88,12.67,8.78,19.95.49,5.58-1,11.09-2.2,16.49-1.05,4-2,8.19-3.94,11.94a18.15,18.15,0,0,1-6.21,5.7c-4.11,2.37-8.47,4.26-12.7,6.4-3,1.55-6.31,2.67-9.12,4.64,0,.3-.06.91-.08,1.22,1.85.57,3.68-.42,5.45-.87,7.84-2.73,15.7-5.9,22.28-11.08a15.26,15.26,0,0,0,5.67-8.91c2-8.13,4-16.41,3.7-24.83.29-6.28-2.23-12.22-5.05-17.68a28.33,28.33,0,0,0-4.55-6.74c-3.4-1.15-6.11-3.59-8.92-5.72-4.84-3.87-9.28-8.94-15.68-10.06C459,110.85,448,112.53,437.25,110.55Z" transform="translate(0 0)"/><path d="M93.63,112.29c-12.57-.06-25.25-.85-37.72,1.18a17.59,17.59,0,0,0-6.78,2.21,45,45,0,0,0-12.21,11.54c-2.29,3.23-4.59,6.55-5.86,10.35-1.75,4.9-1.69,10.19-1.84,15.33a186.29,186.29,0,0,0,1.52,30.6c.57,4,1.16,8,3,11.6a29.06,29.06,0,0,0,8.31,9.82A63.86,63.86,0,0,0,52.13,210c3.83,1.55,7.72,3.23,11.88,3.63-.84-2.06-3.22-2.68-4.91-3.87-6.58-4.1-14.43-6.5-19.69-12.47-3.42-4-5-9.16-5.73-14.27-1.83-10.95-2-22.1-1.67-33.17a32.2,32.2,0,0,1,2.67-12A74.91,74.91,0,0,1,46.14,121.8c1.8-1.91,3.78-4,6.53-4.39,13.5-2.53,27.26-3.23,40.92-4.38Z" transform="translate(0 0)"/><path d="M141.89,120.2c-2.38-.44-5.22-.83-7.29.73-1.33,1.13-.64,2.89-.28,4.31C136.91,123.68,139.8,122.45,141.89,120.2Z" transform="translate(0 0)"/><path d="M208.16,125.85a5.85,5.85,0,0,0-7-3.09c-4,.93-6,4.76-9.08,7.08a58.3,58.3,0,0,1-14,7.66c-5.29,2-10.84,3.69-16.56,3.72-7.75-.4-15.2-2.85-22.49-5.33a194.17,194.17,0,0,1-21.2-9.08,36.47,36.47,0,0,0-10.45-3.13,94.91,94.91,0,0,0-27.65-.54c-9,1.29-16.76,6.85-22.47,13.66a51,51,0,0,0-12.13,29.77,55.42,55.42,0,0,0,6.74,26.85c1.46,2.34,3,4.92,5.55,6.19a4.14,4.14,0,0,0,5.44-3.73,35.72,35.72,0,0,0-2.67-11.67c-2-5.1-3.9-10.37-4.43-15.87.21-6.12,3-11.81,6-17.05s6.78-10,11.75-13.44A33.55,33.55,0,0,1,86.68,134l.29-.22a105.77,105.77,0,0,1,14.24-.23c2.48.28,5.12.69,7.17,2.22,3,2.15,6.39,3.53,9.71,5,12.09,5.15,24.71,9.53,37.87,10.72,9.14.38,18.6.59,27.23-2.89A58.89,58.89,0,0,0,204.84,133C206.44,131,208.44,128.64,208.16,125.85Z" transform="translate(0 0)"/><path d="M468.39,126.92a28,28,0,0,0-3.77-.24c0,.26,0,.77,0,1,3.57,3.42,8.31,5,12.5,7.51a11.77,11.77,0,0,1,5.19,7.41c1.25,4.69,1.68,9.54,2.45,14.32.2,3.3.85,6.8-.45,10-2.72,5.82-9.92,8.38-11.87,14.65a6.41,6.41,0,0,0,3.63-.94,32,32,0,0,0,8.8-7.62,12.67,12.67,0,0,0,3-8.05,106.39,106.39,0,0,0-3.11-25.5c-.77-2.39-1.3-5.15-3.47-6.71C477.41,130,472.87,128.4,468.39,126.92Z" transform="translate(0 0)"/><path d="M467.19,139.37A47.13,47.13,0,0,0,452,136c-6.61-.16-13.45-.44-19.74,2-6.72,2.55-12,7.67-18.09,11.26a9.34,9.34,0,0,1-6.94,1.22c-4.8-1.95-9.33-5-14.71-5a5.18,5.18,0,0,0-2.57,6.83c1.75,4.41,6.21,7.11,10.6,8.38a69.9,69.9,0,0,0,17,2.12c3.78-.26,8.71-.13,10.75-4,1.87-4.07,3.89-8.75,8.35-10.55,6.84-2.37,14.43-2,21.27.2,4.13,1.18,7.34,4.44,11.64,5.17,2.94,1,6-2.09,5.5-5C474.55,144.27,470.6,141.46,467.19,139.37Z" transform="translate(0 0)"/><path d="M104,149.14c1,2.72,3.5,4.44,5.74,6.08A140.5,140.5,0,0,0,126,164.41c11.29,5.76,23,10.7,34.78,15.35,18.72,7.55,38.15,13.09,57.39,19.11,26.11,7.9,52.43,15.65,79.55,19.17,14.64,1.72,29.36,3.17,44.11,3.26,12.49.13,25.06-.55,37.28-3.25a137.44,137.44,0,0,0,32.8-11.78c6-3.2,11.89-6.74,16.66-11.61a26.58,26.58,0,0,0,6.3-10.81c2.44-7.06,2.23-14.69,4.5-21.79.74-1.26,1.35-3,3-3.25s3.12.87,3.81,2.27c2.08,3.93,1.57,8.66,3.68,12.6a11.65,11.65,0,0,0,3.42,4c2.29,3,3.14,6.83,4.05,10.43,3.23,15,4.14,30.42,4.09,45.74a282.38,282.38,0,0,1-1.59,33.29c-1.25,11.21-5.58,21.91-11.6,31.38a42,42,0,0,1-19.39,15.63c-12.4,5.22-25.85,7-39.05,8.91-8.22,1.2-16.52,1.67-24.79,2.3-18.49,1-37,.94-55.51.62l-.34-.21c-25.48-.49-51-3-75.73-9.54-13.08-3.44-26-7.71-38.07-13.91A248.68,248.68,0,0,1,167,283.82a287.3,287.3,0,0,1-24.24-19.76c-8.44-7.73-15.45-16.82-22.34-25.9-5.84-7.58-10.89-15.71-16.38-23.54-3.46-4.77-6.71-9.76-11-13.88a19,19,0,0,1-1.69-2.48c.16-2.48,1.51-4.88.7-7.38-.87-4-2.57-8.94-7-10.25-6.62-1.76-14.21.87-20.27-3.11-1-2.59,1.21-4.81,3.51-5.51,4.78-1.65,9.48-3.51,14.1-5.53a16.06,16.06,0,0,0,6.74-5.13c4-5.37,3-13.16,8-18,1.3-1.48,3.54-.69,4.59.66C103.11,145.42,103.46,147.36,104,149.14Zm-1.71,18.42c-1.11.41-2.54,1-2.56,2.41-.49,4.33.9,8.59,2.45,12.58a27.18,27.18,0,0,0,7,10.54,64.33,64.33,0,0,0,12.11,7.77c6.84,3.56,13.8,6.86,20.8,10.08a41.59,41.59,0,0,0,7.73,2.95,37.24,37.24,0,0,0,.6-11.73c-.42-3.23-.23-6.64-1.69-9.64-1.52-3.29-4.76-5.23-7.72-7.05-8.2-4.56-16.64-8.69-25.08-12.77C111.52,170.66,107.13,168.35,102.28,167.56ZM443,195.69c.42,3.71,2,7.71,5.2,9.86.26-3.71-1.88-7.06-4.07-9.88Zm-277.48-.21a13.29,13.29,0,0,0-3.32-.46c-.43.86-.85,1.73-1.27,2.6a11.31,11.31,0,0,0,.26,5.08,38,38,0,0,0,6.42,10.49c3.59,4.32,7.55,8.66,12.74,11,10.6,1.68,20.47,6.24,30.41,10.11,3.57,1.25,7,3,10.72,3.78,2.63-5,3.35-10.72,4.73-16.15.42-2.21,1.45-4.86-.18-6.8-2.12-2.18-5.23-2.89-8-3.88-10.82-3.33-21.74-6.35-32.54-9.74C178.8,199.53,172.24,197.2,165.49,195.48Zm266.5,12a14.38,14.38,0,0,0-.67,3.11c-.56,8,.44,15.91,1.63,23.76.34,1.66.51,3.67,2,4.75a3.8,3.8,0,0,0,2.19-.85c2.27-1.49,4.89-3.16,5.35-6.06-.77-5.23-2.68-10.2-4.33-15.2-1.36-3.33-2.64-6.84-5.07-9.56Zm-313.43,7.11a50.25,50.25,0,0,0,4,6.5c6.33,9.13,12.77,18.24,20.17,26.56,1.63,1.52,3,3.74,5.39,4,4.25-1.87,4.32-7.14,4-11.1-.6-3.32-.9-6.85-2.78-9.74-2.11-3-5.37-5-8.58-6.67-4.36-2.26-8.83-4.28-13.31-6.28C124.52,216.68,121.68,215.2,118.56,214.59Zm296.59,3.91a81.75,81.75,0,0,0-10.7,5.18c-2,1.15-4,3.17-3.5,5.69a80.26,80.26,0,0,1,2.21,9.56c.6,3.18.29,6.54,1.69,9.55,2.86-.61,5.74-1.11,8.58-1.79a7.89,7.89,0,0,0,5.19-4.5c1.77-3.86,2.12-8.14,2.38-12.32.05-3.61-.24-7.41-2-10.64C418.41,217.66,416.4,218.06,415.15,218.5Zm-175,.8c-2.56,3.57-3.12,8-4.12,12.2-.6,2.86-1.57,5.65-1.88,8.58,1.92,2.69,5.27,3.62,8.25,4.59A179.68,179.68,0,0,0,277,251.29a92.65,92.65,0,0,0,10.14.17,33.24,33.24,0,0,0,3.92-1c1.45-2.09,1.37-4.71,1.08-7.13-.44-3.43-.1-7-1.37-10.31-1.08-2.72-4-4-6.59-4.78l-.34-.19c-8.3-2.18-16.75-3.82-25.19-5.41l-.32-.19C252.22,221.54,246.25,219.79,240.11,219.3Zm140.56,10.5c-7.9.87-15.78,2-23.59,3.4-2.73.51-6.33,1.67-6.34,5a53.68,53.68,0,0,0,1.1,9.8c.54,2.3,3.14,3.15,5.24,3.09a153.49,153.49,0,0,0,27.76-1.92c2.32-.51,4.78-.82,6.78-2.21l.68-1.25c0-3-1.12-5.77-1.92-8.58-.66-2-1.19-4.25-2.6-5.93C385.85,229.58,383.08,229.54,380.67,229.8Zm-73.28.88a3.93,3.93,0,0,0-3.42,1.95c-1,2.13-.75,4.56-.81,6.85.07,3-.29,6.06.75,8.91a5.38,5.38,0,0,0,3.89,2.52c5.83,1,11.76.46,17.64.58,4.45-.11,9.08.35,13.37-1.06,2-.72,1.74-3.12,1.47-4.79a85.31,85.31,0,0,0-2.86-11.91c-7-1-14-1.91-21.07-2.59A44.74,44.74,0,0,0,307.39,230.68Zm-143.1,7.24c-1.33,2.35-.56,5.1-1,7.64-.38,4.28-1.61,8.67-4.48,12a3.64,3.64,0,0,0,0,5.16c2.77,3.13,6.32,5.4,9.66,7.85,9.81,6.83,19.69,13.57,29.87,19.86,1.79,1,3.78,2.45,5.92,1.76,1.69-.86,2.68-2.59,3.6-4.16a87.15,87.15,0,0,0,8.11-20.25c.7-3.17,1.52-6.86-.64-9.67-2.1-3-5.89-3.68-9.19-4.53-11.46-3.39-22.27-8.58-33.16-13.44C170.2,239,167.37,237.51,164.29,237.92Zm67.45,23.44a2.83,2.83,0,0,0-3.69,1.5c.06,6.32-.6,12.81-3.62,18.47a60.06,60.06,0,0,0-5.8,12.36c-.44,1.62-.92,3.83.57,5.08,1.88,1.64,4.33,2.41,6.63,3.25a275.46,275.46,0,0,0,37.44,9.36c4.14.56,8.3,1.42,12.49,1.19a6.82,6.82,0,0,0,3-1.13,11.55,11.55,0,0,0,1.76-5.27,120.26,120.26,0,0,0,.72-13.14,57.57,57.57,0,0,0,.16-10.42c-.24-2.18-.7-4.65-2.59-6a22,22,0,0,0-7.33-2.78c-6-1.42-11.88-3.18-17.73-5.05l-3-.93C244.32,265.87,238.2,263.09,231.74,261.36Zm211.58,14.11c-3.21,5.58-6.28,11.39-7.7,17.72a5.87,5.87,0,0,0,.31,3.15c.45-.06.9-.11,1.36-.15,2.63-5.64,4.89-11.44,7.36-17.15,1-3,2.64-5.86,2.53-9.07A27.36,27.36,0,0,0,443.32,275.47Zm-17.86,3.85c-.83.19-1.66.41-2.49.61-3.73,3.43-6.27,7.91-8.58,12.37-2.05,4-3.91,8.18-5.7,12.34a8,8,0,0,0-.7,2.89c3,.34,5.95-.72,8.83-1.47,4.47-1.25,9.09-2.44,12.91-5.17a4.22,4.22,0,0,0,1.55-2.26c-2.51-1.27-6.5.7-7.8-2.5-1-5.36,1.78-10.37,2.74-15.52ZM296,279.4c-2.07-.44-2.7,2.28-3,3.8a154.65,154.65,0,0,0-1.29,20.63c.07,3.18,0,6.57,1.4,9.48.81,1.52,2.61,1.65,4.1,1.88a147.6,147.6,0,0,0,18,.81c4.38-.08,8.94.38,13.11-1.25,2-1.84,2.41-4.63,2.94-7.16,1.11-6.14,2.7-12.2,3.24-18.41,0-1.54-.39-3.42-1.85-4.22-2.27-1.18-4.88-1.21-7.37-1.34l-.35-.21c-5.35-.09-10.66-.81-16-1.42A76.63,76.63,0,0,1,296,279.4Zm96.62,6.69c-1.38.24-3.1.07-4,1.36-2.95,3.54-4.25,8.07-5.72,12.34-1.05,3.36-2.25,6.66-3.48,9.94a5.71,5.71,0,0,0-.11,2.79,7.68,7.68,0,0,0,2.59.42,70.84,70.84,0,0,0,9.69-1.66,9.41,9.41,0,0,0,4.13-2c.38-1.21-.3-2.5,0-3.74,1.29-5.86,4.26-11.14,6.91-16.47.79-1.67,1.76-3.35,1.58-5.27C400.32,284.07,396.6,285.7,392.66,286.09Zm-44.29,2.25c-2.29,4.46-3.32,9.39-4.41,14.23l-.39,2.47c-.46,3.33-1.95,7.08-.26,10.26,4.29,1.24,8.88.7,13.24.07,2.23-.47,4.88-.78,6.3-2.79a73.73,73.73,0,0,0,8-14.32c1.18-2.76,2.59-5.51,2.83-8.55-.18-.31-.55-.91-.74-1.22-3.22-1.48-6.83-1.29-10.28-1.55C357.9,286.61,352.82,286.45,348.37,288.34Z" transform="translate(0 0)"/><path d="M234,163c-1.13-.59-2.09.2-2.61,1.18,1.81,2.35,1.28,6.11-1.69,7.18-5.54,1.79-11.47,1.6-17.21,2.14-7.3.21-14.83-.31-21.88,2a3.64,3.64,0,0,0,0,2.84c12.61-1.4,25.36-1.26,37.91-3.27,2.25-.43,4.65-1.17,6.13-3A7.08,7.08,0,0,0,234,163Z" transform="translate(0 0)"/><path d="M265.79,163.67c-7.34-1.11-15.57-.61-21.82,3.8-3.89,2.67-5.36,7.62-5.16,12.15.18,4.79-.59,9.86,1.49,14.36,1.41,3.26,4.59,5.16,7.5,6.92,1.72.86,3.42,2.15,5.41,2.13a8.65,8.65,0,0,0,3.58-4.8,6.87,6.87,0,0,0-2.51-6.87,12.55,12.55,0,0,1-4.85-10.57,5,5,0,0,1,2.7-4.36c3.69-2,7.94-2.36,12-3.1,2.49-.39,5.34-.69,7.07-2.74a3.17,3.17,0,0,0,0-4.62A11.27,11.27,0,0,0,265.79,163.67Z" transform="translate(0 0)"/><path d="M294.26,183.71c-8.28-2.24-17-1.9-25.43-.86a5.9,5.9,0,0,0-4.54,3.57,43.9,43.9,0,0,0,0,5.13,8.36,8.36,0,0,0,4,5.87c2.92.25,3.7-3.29,6.39-3.61,7.8-2.07,15.94,0,23.83-1.25,2.1-.29,4.59-1.5,4.12-4.05C300.62,185.81,297.36,184.6,294.26,183.71Z" transform="translate(0 0)"/><path d="M147.6,298.28a9.74,9.74,0,0,0-4-.95c3.9,2.92,8.29,5.09,12.54,7.44,20.9,11.3,42.69,20.87,64.71,29.77,11.24,4.42,22.59,8.62,34.14,12.14l.32.16c15.39,4.75,31.55,5.72,47.52,6.61,12.23.87,24.48,1.37,36.72,2,14.09.46,28.21,1,42.3.32,11.71-.57,23.69-2,34.4-7,9.46-4.33,18.61-10.43,24.07-19.49-.27-.24-.53-.46-.8-.68l-1.24.54c-4.7,2.63-8.33,6.71-12.63,9.89a75.23,75.23,0,0,1-13.35,7.65,76.83,76.83,0,0,1-28.17,6.53c-8.1.32-16.2.06-24.3-.09-5.42-.57-10.9-.2-16.32-.76-7.9-.28-15.8-.61-23.68-1.12-6.23-.12-12.44-.62-18.66-.85-11-.77-22.12-1.25-33-3.39-11.42-2.33-22.26-6.7-33.19-10.6-21.34-8.13-42.36-17.13-62.86-27.19C164,305.37,155.93,301.55,147.6,298.28Z" transform="translate(0 0)"/><path d="M126.9,302.36c-3.62-1.62-7.17-3.49-11-4.54.35,1.85,2.34,2.55,3.66,3.63,10.62,6.75,21.89,12.42,33.11,18.09s22.48,10.94,33.94,15.91a381.24,381.24,0,0,0,49.87,17.06c14.13,3.36,28.35,6.33,42.6,9.17,13.89,2.64,27.85,5.11,41.93,6.45l.36.23c13.58,1.18,27.17,2.28,40.81,2.59,7.3.59,14.64.23,21.95.78,10,.16,19.95.44,29.93.23A61.31,61.31,0,0,0,430.12,370c6.06-1.81,11.37-5.34,16.73-8.58,4.49-2.82,9.12-5.47,13.22-8.85a10.3,10.3,0,0,0,4-8.64c-.13-3.65.15-7.4-.8-11-.49,3.44-.56,7-1.54,10.33a14,14,0,0,1-4.27,6.17c-4.64,4-10,7-15.25,10.18-5.7,3.37-11.45,7-18,8.55-7.75,1.84-15.77,1.46-23.69,1.48-4.54,0-9.08-.1-13.63-.26-6.16-.51-12.37-.18-18.54-.72-10.39-.29-20.78-.79-31.15-1.61a433.91,433.91,0,0,1-57.49-8.54c-13.08-2.6-26.12-5.41-39.13-8.3-6.18-1.44-12.39-2.76-18.45-4.69-20.81-6.73-40.8-15.77-60.46-25.33C150,314.57,138.64,308,126.9,302.36Z" transform="translate(0 0)"/><path d="M361.54,338.67c1.16-.24-.77-.38-1.06-.42-16.76-.5-33.55-.43-50.32-.06a24.51,24.51,0,0,0-3.52.33c1.54.1,3.09.15,4.61.39,13.38.31,26.78.17,40.16.13C354.8,339.12,358.16,338.65,361.54,338.67Z" transform="translate(0 0)"/></g><g id="White"><path class="cls-1" d="M279.11,12c12.26.21,24.51,1,36.77,1.5,14.13,1,28.32,1.78,42.38,3.78,4.47.69,9,1.34,13.2,3.07.09.44.18.88.26,1.32a23.39,23.39,0,0,1-6.18.79c-15.5.35-31-.81-46.44-1.41l-.34-.25c-5.15-.08-10.26-.72-15.4-.93-8.45-.78-16.9-1.57-25.27-3-16.16-1.61-32.46-2.53-48.69-1.34-19.7,1.19-38.58,7.73-56.58,15.43C163.14,35.48,154,41.08,145,46.72c-8.76,5.59-17.53,11.24-25.71,17.67-1.6,1.46-3.74,2.61-4.38,4.83a15,15,0,0,0,4-1.7c7.14-4.23,13.39-9.76,20.52-14a305.52,305.52,0,0,1,59.37-28.71c11.31-3.94,23.22-5.75,35.1-6.91,12.06-.88,24.13.35,36.15,1.32,17.14,1.34,34.16,4,51.33,5.14,11.67.64,23.34,1,35,.68,11.09-.68,22.22-.77,33.32-.39,7.07.54,14.25,1.07,21,3.33a158.77,158.77,0,0,1,27.29,12.44c8.46,4.84,16.81,10,24,16.66a26.34,26.34,0,0,1,6.33,10.54,30.23,30.23,0,0,1,1.45,9.19c.61,7.73,2.18,15.74,6.77,22.18A70.51,70.51,0,0,0,490,112.74a99.52,99.52,0,0,1,9.37,9.34c2,2.56,4.21,5.14,5.18,8.33,2,6,2.41,12.4,2.89,18.67.13,8.32.27,16.88-2.49,24.84-4.22,12.32-11.82,23.11-16.39,35.28-2.5,6.59-3.1,13.69-3.49,20.67-.21,18.46-.16,36.91-.12,55.37,0,10.54.52,21.05.72,31.59.47,8.3.59,16.62,1.47,24.9.52,6.59,1.59,13.18,1.09,19.81-.57,5.95-3.82,11.13-6.88,16.1-5.67,8.19-12.8,15.72-21.81,20.25-8.45,4.42-17.31,8.49-26.8,10-12.33,1.94-24.85,1.26-37.28,1.17-7.74-.39-15.48-.6-23.2-1.26a244.57,244.57,0,0,1-30.08-5l-.32-.17c-12.15-2.76-24.12-6.27-36.24-9.17-10.29-2.44-20.55-5.07-31-6.55-5.49-1.28-10.68-3.57-15.93-5.59-13.88-5.69-27.31-12.4-40.75-19-11.19-5.41-22.38-10.79-33.78-15.74-4-1.78-8.07-3.16-12-5-10.94-5-21.54-10.77-32.05-16.66-8.42-4.83-16.83-9.71-24.82-15.25a138.94,138.94,0,0,1-11.1-9.18C94.53,291.6,84.48,283,77.19,272c-6.33-8.7-9.79-19-15.4-28.14a87.62,87.62,0,0,0-11.2-15.37c-1.71-1.92-3.86-3.66-4.61-6.22,3.45.35,6.67,2.27,10.22,1.7-2.62-3.1-6.67-4.38-10.23-6.08-7.91-2.78-14.18-8.82-18.88-15.59A74.83,74.83,0,0,1,15.26,178q-.24-1.14-.54-2.28c-1.46-6.67-1.91-13.68-.29-20.37,1.58-7.33,6-13.55,10.27-19.57,5.64-7.44,11.61-14.79,19-20.54,3-2.44,7-3.08,10.65-4,3.21-.61,6.42-1.21,9.66-1.64,6.79-1.07,13.71-1.1,20.45-2.39-2.87-.63-5.82-.19-8.73-.46-5.9-.52-11.92.25-17.74-1-1.39-.5-.5-2.26.3-2.94C64,97,67.55,89.6,71.38,82.55c2.28-4.56,4.4-9.2,6.65-13.77A209.64,209.64,0,0,1,93.8,42.46,91.47,91.47,0,0,1,105,29.93a94.35,94.35,0,0,1,12.9-10.52c4.13-2.52,8.38-5.09,13.18-6.12a100.78,100.78,0,0,1,18.1-1.8c4.57,0,9.12-.47,13.7-.38,29.87-.18,59.76-.32,89.63.09C261.4,11.68,270.27,11.41,279.11,12ZM234.56,32.27c-6.06.38-12.08,1.19-18.1,2-8.16,1.21-16.39,2.42-24.17,5.27A185.49,185.49,0,0,0,162.12,53c-11.67,7.1-23,15.35-31.18,26.43a6.84,6.84,0,0,0-1.34,2.92c2.88-1.09,5.18-3.2,7.47-5.18,4.63-4,8.66-8.73,13.6-12.42a142.17,142.17,0,0,1,30.64-17.49,129.54,129.54,0,0,1,31.53-9.34c20-3.3,40.53-5.13,60.72-2.17,7.14.94,14.18,2.53,21.33,3.44,25.29,3.17,50.91,2.93,76.29,1,8.3-.62,16.55-1.78,24.86-2.19a34,34,0,0,1,12.43.86c3.32,1.19,6,4.14,9.63,4.36,1.33.13.55-1.53.09-2a16.24,16.24,0,0,0-9.72-5.77c-6.77-1.16-13.63-.19-20.41.15q-17.74,2-35.59,2.78c-6.94.63-13.91.34-20.85.75-5.28-.25-10.58-.24-15.86-.57-10.67-.92-21.38-1.9-31.88-4.09C267.69,30.92,251,30.8,234.56,32.27Zm12.34,15c-7.89-.13-15.76.27-23.65.51-9.48.69-19.06,1.29-28.25,3.92a108.16,108.16,0,0,0-21.31,8.07,107.46,107.46,0,0,0-22.23,16.89c-2.58,2.63-5.38,5.21-6.94,8.63.27.32.52.65.77,1,3.33-1.7,6.08-4.33,8.72-6.94a95.89,95.89,0,0,1,14.49-12A66,66,0,0,1,181.44,60a121.16,121.16,0,0,1,35.5-8.89c11.29-.91,22.64-1.49,33.95-.66,5.61,0,11.32.53,16.88-.5-.09-.21-.26-.65-.34-.86C260.74,47.42,253.76,47.39,246.9,47.29Zm9.45,5c0,.32-.1,1-.13,1.29l-.43-.39a28.87,28.87,0,0,0,3.5,5.06,39.35,39.35,0,0,1,8.44,15.32c1,3.33,1.2,6.88,2.4,10.17a52.82,52.82,0,0,0,.24-9.74,24.83,24.83,0,0,0-7.16-16.89C261.23,55.09,259.1,53.08,256.35,52.25Zm117,1.13c-10.67.93-21.38,1.77-31.95,3.64-2.92.56-5.9,1.17-8.46,2.77,0,.5,0,1-.05,1.5,2.91.56,5.82-.17,8.63-.92,6.58-1.41,13.29-2.08,20-2.91,8.48-.7,17-1.78,25.5-1.33,6.32.39,11.93,3.63,17.31,6.7,5.1,2.89,10.18,6.3,13.46,11.28,2.29,3.37,3.06,7.47,5.17,10.94l.94,0a21.45,21.45,0,0,0-4.26-14.89c-5.47-7-13.73-10.83-21.6-14.46C390.36,52.05,381.63,52.62,373.39,53.38ZM346.61,68.51c-3.45.42-5.09,3.88-6.17,6.76-2.77,7.73-1.62,16-.85,24,1-3.84.41-7.84,1.11-11.72.82-4.84,2-9.77,4.84-13.87A6.3,6.3,0,0,0,346.61,68.51ZM215.28,82.73a134,134,0,0,0-38,4.72l-.28.24-1.34.27a53.31,53.31,0,0,0-25.2,17.74c-1.79,2.68-4.14,6.11-2.62,9.41,2.59,4.31,7.71,6.61,12.65,6.51,9-.29,17.61-3.29,26.58-3.91a101.93,101.93,0,0,1,40.17,4.16c11,3.36,20.94,9.4,31.49,13.88,4.48-2.91,9.15-5.6,13.17-9.14,2.25-1.91,4.54-4,5.62-6.82.49-2.75.92-5.7,0-8.4-1.17-2.66-3.42-4.6-5.47-6.58a114.82,114.82,0,0,0-29.1-17.64C234.25,83.36,224.65,82.49,215.28,82.73Zm180.21,13a147.57,147.57,0,0,0-19.84.5c-6.38.6-12.9,1.3-18.82,3.92A63,63,0,0,0,342.26,109c-4.32,3.47-9.52,6.15-15.1,6.57-4.14,0-8.44.35-12.09,2.48-1.17,2.61,1.41,4.6,3.25,6,4,3.16,9.5,4,12.73,8.15,2.55,4.46,1.09,9.81,1.79,14.66.05,4.68.93,9.67,4.15,13.27,3.39,3.79,7.5,7.37,12.62,8.4,4.07,2.6,7.45,8,5.34,12.85a58.27,58.27,0,0,1-14.27,16.94c-2.88,2.28-6.39,4.23-10.15,4.18-2.89-.12-4.7-2.67-7.15-3.8-4.12-1.56-8.32,4.18-6,7.77,2.26,4.1,7.09,5.62,11.36,6.61,4.73.41,10,1.11,14.16-1.78,8.28-5.74,14-14.42,22.19-20.26a4.47,4.47,0,0,1,6.25.28c2.43,2,4.6-1,5.81-2.86,1.4-2.28,4.4-2.2,6.65-1.5a101.08,101.08,0,0,1,18,7.47c2.64,1.26,5.25,3.17,8.3,3-1.25-2.54-3.58-4.25-5.8-5.89a25.22,25.22,0,0,0-11.69-4.74c-6.27-1.72-10.52-7-15.13-11.24-6.73-6.25-14.4-11.39-22.15-16.27-3.06-1.94-6.56-3.58-8.55-6.75-2.23-3.35-2.43-7.49-2.83-11.36-.07-3.11-.77-6.61,1.05-9.36,2.17-2.61,5.63-3.45,8.58-4.86,11.3-3.69,23.23-5,35-6.15a191.67,191.67,0,0,0,25.5-3.42,9.68,9.68,0,0,0,7.1-5.57c.75-2.14-.68-4.1-2-5.64a30.18,30.18,0,0,0-9.57-7.48C405.24,96.57,400.31,95.91,395.49,95.7ZM136.85,107.19c-6.42.9-12.92,1.56-19.15,3.43-.58,2.94,2.92,3.72,5,4.71a32.41,32.41,0,0,0,13.18,1.08c-1.41-1.28-3.51-1-5.24-1.54-1.39-.46-3.35-.19-4.08-1.72,4.43-2.43,9.39-3.67,13.89-6A10.32,10.32,0,0,0,136.85,107.19ZM430.42,110c-1.3.24-2,1.39-2.71,2.42a7.88,7.88,0,0,0,4,1.76,99.28,99.28,0,0,0,10.64.36c8.12.61,16.26-.73,24.38,0a14.76,14.76,0,0,1,9.14,4.32A53,53,0,0,0,486,127.52c2.15,1.4,4.59,2.43,6.36,4.34,5.25,5.29,7.88,12.67,8.78,19.95.49,5.58-1,11.09-2.2,16.49-1.05,4-2,8.19-3.94,11.94a18.15,18.15,0,0,1-6.21,5.7c-4.11,2.37-8.47,4.26-12.7,6.4-3,1.55-6.31,2.67-9.12,4.64,0,.3-.06.91-.08,1.22,1.85.57,3.68-.42,5.45-.87,7.84-2.73,15.7-5.9,22.28-11.08a15.26,15.26,0,0,0,5.67-8.91c2-8.13,4-16.41,3.7-24.83.29-6.28-2.23-12.22-5.05-17.68a28.33,28.33,0,0,0-4.55-6.74c-3.4-1.15-6.11-3.59-8.92-5.72-4.84-3.87-9.28-8.94-15.68-10.06-10.79-1.46-21.79.22-32.53-1.76A16.11,16.11,0,0,0,430.42,110ZM55.91,113.47a17.59,17.59,0,0,0-6.78,2.21,45,45,0,0,0-12.21,11.54c-2.29,3.23-4.59,6.55-5.86,10.35-1.75,4.9-1.69,10.19-1.84,15.33a186.29,186.29,0,0,0,1.52,30.6c.57,4,1.16,8,3,11.6a29.06,29.06,0,0,0,8.31,9.82A63.86,63.86,0,0,0,52.13,210c3.83,1.55,7.72,3.23,11.88,3.63-.84-2.06-3.22-2.68-4.91-3.87-6.58-4.1-14.43-6.5-19.69-12.47-3.42-4-5-9.16-5.73-14.27-1.83-10.95-2-22.1-1.67-33.17a32.2,32.2,0,0,1,2.67-12A74.91,74.91,0,0,1,46.14,121.8c1.8-1.91,3.78-4,6.53-4.39,13.5-2.53,27.26-3.23,40.92-4.38l0-.74C81.06,112.23,68.38,111.44,55.91,113.47Zm78.69,7.46c-1.33,1.13-.64,2.89-.28,4.31,2.59-1.56,5.48-2.79,7.57-5C139.51,119.76,136.67,119.37,134.6,120.93Zm66.57,1.83c-4,.93-6,4.76-9.08,7.08a58.3,58.3,0,0,1-14,7.66c-5.29,2-10.84,3.69-16.56,3.72-7.75-.4-15.2-2.85-22.49-5.33a194.17,194.17,0,0,1-21.2-9.08,36.47,36.47,0,0,0-10.45-3.13,94.91,94.91,0,0,0-27.65-.54c-9,1.29-16.76,6.85-22.47,13.66a51,51,0,0,0-12.13,29.77,55.42,55.42,0,0,0,6.74,26.85c1.46,2.34,3,4.92,5.55,6.19a4.14,4.14,0,0,0,5.44-3.73,35.72,35.72,0,0,0-2.67-11.67c-2-5.1-3.9-10.37-4.43-15.87.21-6.12,3-11.81,6-17.05s6.78-10,11.75-13.44A33.55,33.55,0,0,1,86.68,134l.29-.22a105.77,105.77,0,0,1,14.24-.23c2.48.28,5.12.69,7.17,2.22,3,2.15,6.39,3.53,9.71,5,12.09,5.15,24.71,9.53,37.87,10.72,9.14.38,18.6.59,27.23-2.89A58.89,58.89,0,0,0,204.84,133c1.6-2.07,3.6-4.39,3.32-7.18A5.85,5.85,0,0,0,201.17,122.76Zm263.45,3.92c0,.26,0,.77,0,1,3.57,3.42,8.31,5,12.5,7.51a11.77,11.77,0,0,1,5.19,7.41c1.25,4.69,1.68,9.54,2.45,14.32.2,3.3.85,6.8-.45,10-2.72,5.82-9.92,8.38-11.87,14.65a6.41,6.41,0,0,0,3.63-.94,32,32,0,0,0,8.8-7.62,12.67,12.67,0,0,0,3-8.05,106.39,106.39,0,0,0-3.11-25.5c-.77-2.39-1.3-5.15-3.47-6.71-3.9-2.73-8.44-4.33-12.92-5.81A28,28,0,0,0,464.62,126.68ZM452,136c-6.61-.16-13.45-.44-19.74,2-6.72,2.55-12,7.67-18.09,11.26a9.34,9.34,0,0,1-6.94,1.22c-4.8-1.95-9.33-5-14.71-5a5.18,5.18,0,0,0-2.57,6.83c1.75,4.41,6.21,7.11,10.6,8.38a69.9,69.9,0,0,0,17,2.12c3.78-.26,8.71-.13,10.75-4,1.87-4.07,3.89-8.75,8.35-10.55,6.84-2.37,14.43-2,21.27.2,4.13,1.18,7.34,4.44,11.64,5.17,2.94,1,6-2.09,5.5-5-.44-4.3-4.39-7.11-7.8-9.2A47.13,47.13,0,0,0,452,136Zm-354.77,7.4c-5,4.82-4,12.61-8,18a16.06,16.06,0,0,1-6.74,5.13c-4.62,2-9.32,3.88-14.1,5.53-2.3.7-4.52,2.92-3.51,5.51,6.06,4,13.65,1.35,20.27,3.11,4.4,1.31,6.1,6.2,7,10.25.81,2.5-.54,4.9-.7,7.38A19,19,0,0,0,93,200.74c4.26,4.12,7.51,9.11,11,13.88,5.49,7.83,10.54,16,16.38,23.54,6.89,9.08,13.9,18.17,22.34,25.9A287.3,287.3,0,0,0,167,283.82a248.68,248.68,0,0,0,28.37,18.5c12,6.2,25,10.47,38.07,13.91,24.69,6.53,50.25,9,75.73,9.54l.34.21c18.51.32,37,.35,55.51-.62,8.27-.63,16.57-1.1,24.79-2.3,13.2-2,26.65-3.69,39.05-8.91a42,42,0,0,0,19.39-15.63c6-9.47,10.35-20.17,11.6-31.38a282.38,282.38,0,0,0,1.59-33.29c0-15.32-.86-30.73-4.09-45.74-.91-3.6-1.76-7.4-4.05-10.43a11.65,11.65,0,0,1-3.42-4c-2.11-3.94-1.6-8.67-3.68-12.6-.69-1.4-2.14-2.66-3.81-2.27s-2.26,2-3,3.25c-2.27,7.1-2.06,14.73-4.5,21.79a26.58,26.58,0,0,1-6.3,10.81c-4.77,4.87-10.69,8.41-16.66,11.61a137.44,137.44,0,0,1-32.8,11.78c-12.22,2.7-24.79,3.38-37.28,3.25-14.75-.09-29.47-1.54-44.11-3.26-27.12-3.52-53.44-11.27-79.55-19.17-19.24-6-38.67-11.56-57.39-19.11-11.79-4.65-23.49-9.59-34.78-15.35a140.5,140.5,0,0,1-16.26-9.19c-2.24-1.64-4.75-3.36-5.74-6.08-.53-1.78-.88-3.72-2.22-5.11C100.72,142.68,98.48,141.89,97.18,143.37ZM231.4,164.14c1.81,2.35,1.28,6.11-1.69,7.18-5.54,1.79-11.47,1.6-17.21,2.14-7.3.21-14.83-.31-21.88,2a3.64,3.64,0,0,0,0,2.84c12.61-1.4,25.36-1.26,37.91-3.27,2.25-.43,4.65-1.17,6.13-3a7.08,7.08,0,0,0-.68-9C232.88,162.37,231.92,163.16,231.4,164.14ZM244,167.47c-3.89,2.67-5.36,7.62-5.16,12.15.18,4.79-.59,9.86,1.49,14.36,1.41,3.26,4.59,5.16,7.5,6.92,1.72.86,3.42,2.15,5.41,2.13a8.65,8.65,0,0,0,3.58-4.8,6.87,6.87,0,0,0-2.51-6.87,12.55,12.55,0,0,1-4.85-10.57,5,5,0,0,1,2.7-4.36c3.69-2,7.94-2.36,12-3.1,2.49-.39,5.34-.69,7.07-2.74a3.17,3.17,0,0,0,0-4.62,11.27,11.27,0,0,0-5.44-2.3C258.45,162.56,250.22,163.06,244,167.47Zm24.86,15.38a5.9,5.9,0,0,0-4.54,3.57,43.9,43.9,0,0,0,0,5.13,8.36,8.36,0,0,0,4,5.87c2.92.25,3.7-3.29,6.39-3.61,7.8-2.07,15.94,0,23.83-1.25,2.1-.29,4.59-1.5,4.12-4.05-2-2.7-5.24-3.91-8.34-4.8C286,181.47,277.27,181.81,268.83,182.85ZM143.61,297.33c3.9,2.92,8.29,5.09,12.54,7.44,20.9,11.3,42.69,20.87,64.71,29.77,11.24,4.42,22.59,8.62,34.14,12.14l.32.16c15.39,4.75,31.55,5.72,47.52,6.61,12.23.87,24.48,1.37,36.72,2,14.09.46,28.21,1,42.3.32,11.71-.57,23.69-2,34.4-7,9.46-4.33,18.61-10.43,24.07-19.49-.27-.24-.53-.46-.8-.68l-1.24.54c-4.7,2.63-8.33,6.71-12.63,9.89a75.23,75.23,0,0,1-13.35,7.65,76.83,76.83,0,0,1-28.17,6.53c-8.1.32-16.2.06-24.3-.09-5.42-.57-10.9-.2-16.32-.76-7.9-.28-15.8-.61-23.68-1.12-6.23-.12-12.44-.62-18.66-.85-11-.77-22.12-1.25-33-3.39-11.42-2.33-22.26-6.7-33.19-10.6-21.34-8.13-42.36-17.13-62.86-27.19-8.1-3.81-16.21-7.63-24.54-10.9A9.74,9.74,0,0,0,143.61,297.33Zm-27.73.49c.35,1.85,2.34,2.55,3.66,3.63,10.62,6.75,21.89,12.42,33.11,18.09s22.48,10.94,33.94,15.91a381.24,381.24,0,0,0,49.87,17.06c14.13,3.36,28.35,6.33,42.6,9.17,13.89,2.64,27.85,5.11,41.93,6.45l.36.23c13.58,1.18,27.17,2.28,40.81,2.59,7.3.59,14.64.23,21.95.78,10,.16,19.95.44,29.93.23A61.31,61.31,0,0,0,430.12,370c6.06-1.81,11.37-5.34,16.73-8.58,4.49-2.82,9.12-5.47,13.22-8.85a10.3,10.3,0,0,0,4-8.64c-.13-3.65.15-7.4-.8-11-.49,3.44-.56,7-1.54,10.33a14,14,0,0,1-4.27,6.17c-4.64,4-10,7-15.25,10.18-5.7,3.37-11.45,7-18,8.55-7.75,1.84-15.77,1.46-23.69,1.48-4.54,0-9.08-.1-13.63-.26-6.16-.51-12.37-.18-18.54-.72-10.39-.29-20.78-.79-31.15-1.61a433.91,433.91,0,0,1-57.49-8.54c-13.08-2.6-26.12-5.41-39.13-8.3-6.18-1.44-12.39-2.76-18.45-4.69-20.81-6.73-40.8-15.77-60.46-25.33-11.74-5.67-23.06-12.2-34.8-17.88C123.28,300.74,119.73,298.87,115.88,297.82Zm244.6,40.43c-16.76-.5-33.55-.43-50.32-.06a24.51,24.51,0,0,0-3.52.33c1.54.1,3.09.15,4.61.39,13.38.31,26.78.17,40.16.13,3.39.08,6.75-.39,10.13-.37C362.7,338.43,360.77,338.29,360.48,338.25Z" transform="translate(0 0)"/><path class="cls-1" d="M235.7,97.06c-4.14-1.12-8.3-3-12.67-2.46-.73,2.25-.53,4.65-1.2,6.92-.46,2.11-1.7,4.14-1.17,6.38l1.29.78c1.18.13,2.36.2,3.54.26a40.2,40.2,0,0,1,7.44,1.65c5.53,2,10.56,5.06,16,7.26,3.53,1.42,7.22,3.57,11.15,2.64,1.82-.85,3.87-2.48,3.67-4.7.05-1.77-1.45-3-2.54-4.15C254,104.88,244.94,100.36,235.7,97.06Z" transform="translate(0 0)"/><path class="cls-1" d="M176.23,104.4c-5.27-2.37-11.5.67-14.48,5.26-.35.54-.69,1.08-1.05,1.62a51.62,51.62,0,0,0,5.38-1.2,23.91,23.91,0,0,0,8.82-3.67A3.77,3.77,0,0,0,176.23,104.4Z" transform="translate(0 0)"/><path class="cls-1" d="M398,107.19a49.38,49.38,0,0,0-15.91,0c0,.2.07.58.09.77A139,139,0,0,0,398,108C398,107.77,398,107.38,398,107.19Z" transform="translate(0 0)"/><path class="cls-1" d="M115.94,172.7c-4.42-2-8.81-4.35-13.66-5.14-1.11.41-2.54,1-2.56,2.41-.49,4.33.9,8.59,2.45,12.58a27.18,27.18,0,0,0,7,10.54,64.33,64.33,0,0,0,12.11,7.77c6.84,3.56,13.8,6.86,20.8,10.08a41.59,41.59,0,0,0,7.73,2.95,37.24,37.24,0,0,0,.6-11.73c-.42-3.23-.23-6.64-1.69-9.64-1.52-3.29-4.76-5.23-7.72-7.05C132.82,180.91,124.38,176.78,115.94,172.7Z" transform="translate(0 0)"/><path class="cls-1" d="M444.1,195.67l-1.13,0c.42,3.71,2,7.71,5.2,9.86C448.43,201.84,446.29,198.49,444.1,195.67Z" transform="translate(0 0)"/><path class="cls-1" d="M185.46,201.54c-6.66-2-13.22-4.34-20-6.06a13.29,13.29,0,0,0-3.32-.46c-.43.86-.85,1.73-1.27,2.6a11.31,11.31,0,0,0,.26,5.08,38,38,0,0,0,6.42,10.49c3.59,4.32,7.55,8.66,12.74,11,10.6,1.68,20.47,6.24,30.41,10.11,3.57,1.25,7,3,10.72,3.78,2.63-5,3.35-10.72,4.73-16.15.42-2.21,1.45-4.86-.18-6.8-2.12-2.18-5.23-2.89-8-3.88C207.18,208,196.26,204.93,185.46,201.54Z" transform="translate(0 0)"/><path class="cls-1" d="M433.09,207.43l-1.1,0a14.38,14.38,0,0,0-.67,3.11c-.56,8,.44,15.91,1.63,23.76.34,1.66.51,3.67,2,4.75a3.8,3.8,0,0,0,2.19-.85c2.27-1.49,4.89-3.16,5.35-6.06-.77-5.23-2.68-10.2-4.33-15.2C436.8,213.66,435.52,210.15,433.09,207.43Z" transform="translate(0 0)"/><path class="cls-1" d="M127.46,217.85c-2.94-1.17-5.78-2.65-8.9-3.26a50.25,50.25,0,0,0,4,6.5c6.33,9.13,12.77,18.24,20.17,26.56,1.63,1.52,3,3.74,5.39,4,4.25-1.87,4.32-7.14,4-11.1-.6-3.32-.9-6.85-2.78-9.74-2.11-3-5.37-5-8.58-6.67C136.41,221.87,131.94,219.85,127.46,217.85Z" transform="translate(0 0)"/><path class="cls-1" d="M419,219.23c-.6-1.57-2.61-1.17-3.86-.73a81.75,81.75,0,0,0-10.7,5.18c-2,1.15-4,3.17-3.5,5.69a80.26,80.26,0,0,1,2.21,9.56c.6,3.18.29,6.54,1.69,9.55,2.86-.61,5.74-1.11,8.58-1.79a7.89,7.89,0,0,0,5.19-4.5c1.77-3.86,2.12-8.14,2.38-12.32C421.05,226.26,420.76,222.46,419,219.23Z" transform="translate(0 0)"/><path class="cls-1" d="M258.31,222.42c-6.09-.88-12.06-2.63-18.2-3.12-2.56,3.57-3.12,8-4.12,12.2-.6,2.86-1.57,5.65-1.88,8.58,1.92,2.69,5.27,3.62,8.25,4.59A179.68,179.68,0,0,0,277,251.29a92.65,92.65,0,0,0,10.14.17,33.24,33.24,0,0,0,3.92-1c1.45-2.09,1.37-4.71,1.08-7.13-.44-3.43-.1-7-1.37-10.31-1.08-2.72-4-4-6.59-4.78l-.34-.19c-8.3-2.18-16.75-3.82-25.19-5.41Z" transform="translate(0 0)"/><path class="cls-1" d="M387.78,231.24c-1.93-1.66-4.7-1.7-7.11-1.44-7.9.87-15.78,2-23.59,3.4-2.73.51-6.33,1.67-6.34,5a53.68,53.68,0,0,0,1.1,9.8c.54,2.3,3.14,3.15,5.24,3.09a153.49,153.49,0,0,0,27.76-1.92c2.32-.51,4.78-.82,6.78-2.21l.68-1.25c0-3-1.12-5.77-1.92-8.58C389.72,235.12,389.19,232.92,387.78,231.24Z" transform="translate(0 0)"/><path class="cls-1" d="M316.35,231.14a44.74,44.74,0,0,0-9-.46,3.93,3.93,0,0,0-3.42,1.95c-1,2.13-.75,4.56-.81,6.85.07,3-.29,6.06.75,8.91a5.38,5.38,0,0,0,3.89,2.52c5.83,1,11.76.46,17.64.58,4.45-.11,9.08.35,13.37-1.06,2-.72,1.74-3.12,1.47-4.79a85.31,85.31,0,0,0-2.86-11.91C330.41,232.74,323.39,231.82,316.35,231.14Z" transform="translate(0 0)"/><path class="cls-1" d="M173,240.11c-2.75-1.16-5.58-2.6-8.66-2.19-1.33,2.35-.56,5.1-1,7.64-.38,4.28-1.61,8.67-4.48,12a3.64,3.64,0,0,0,0,5.16c2.77,3.13,6.32,5.4,9.66,7.85,9.81,6.83,19.69,13.57,29.87,19.86,1.79,1,3.78,2.45,5.92,1.76,1.69-.86,2.68-2.59,3.6-4.16a87.15,87.15,0,0,0,8.11-20.25c.7-3.17,1.52-6.86-.64-9.67-2.1-3-5.89-3.68-9.19-4.53C194.65,250.16,183.84,245,173,240.11Z" transform="translate(0 0)"/><path class="cls-1" d="M250.72,267.82c-6.4-1.95-12.52-4.73-19-6.46a2.83,2.83,0,0,0-3.69,1.5c.06,6.32-.6,12.81-3.62,18.47a60.06,60.06,0,0,0-5.8,12.36c-.44,1.62-.92,3.83.57,5.08,1.88,1.64,4.33,2.41,6.63,3.25a275.46,275.46,0,0,0,37.44,9.36c4.14.56,8.3,1.42,12.49,1.19a6.82,6.82,0,0,0,3-1.13,11.55,11.55,0,0,0,1.76-5.27,120.26,120.26,0,0,0,.72-13.14,57.57,57.57,0,0,0,.16-10.42c-.24-2.18-.7-4.65-2.59-6a22,22,0,0,0-7.33-2.78c-6-1.42-11.88-3.18-17.73-5.05Z" transform="translate(0 0)"/><path class="cls-1" d="M447.18,270a27.36,27.36,0,0,0-3.86,5.5c-3.21,5.58-6.28,11.39-7.7,17.72a5.87,5.87,0,0,0,.31,3.15c.45-.06.9-.11,1.36-.15,2.63-5.64,4.89-11.44,7.36-17.15C445.69,276.09,447.29,273.18,447.18,270Z" transform="translate(0 0)"/><path class="cls-1" d="M426.22,280.61l-.76-1.29c-.83.19-1.66.41-2.49.61-3.73,3.43-6.27,7.91-8.58,12.37-2.05,4-3.91,8.18-5.7,12.34a8,8,0,0,0-.7,2.89c3,.34,5.95-.72,8.83-1.47,4.47-1.25,9.09-2.44,12.91-5.17a4.22,4.22,0,0,0,1.55-2.26c-2.51-1.27-6.5.7-7.8-2.5C422.48,290.77,425.26,285.76,426.22,280.61Z" transform="translate(0 0)"/><path class="cls-1" d="M309,282A76.63,76.63,0,0,1,296,279.4c-2.07-.44-2.7,2.28-3,3.8a154.65,154.65,0,0,0-1.29,20.63c.07,3.18,0,6.57,1.4,9.48.81,1.52,2.61,1.65,4.1,1.88a147.6,147.6,0,0,0,18,.81c4.38-.08,8.94.38,13.11-1.25,2-1.84,2.41-4.63,2.94-7.16,1.11-6.14,2.7-12.2,3.24-18.41,0-1.54-.39-3.42-1.85-4.22-2.27-1.18-4.88-1.21-7.37-1.34l-.35-.21C319.6,283.32,314.29,282.6,309,282Z" transform="translate(0 0)"/><path class="cls-1" d="M404.27,283.78c-3.95.29-7.67,1.92-11.61,2.31-1.38.24-3.1.07-4,1.36-2.95,3.54-4.25,8.07-5.72,12.34-1.05,3.36-2.25,6.66-3.48,9.94a5.71,5.71,0,0,0-.11,2.79,7.68,7.68,0,0,0,2.59.42,70.84,70.84,0,0,0,9.69-1.66,9.41,9.41,0,0,0,4.13-2c.38-1.21-.3-2.5,0-3.74,1.29-5.86,4.26-11.14,6.91-16.47C403.48,287.38,404.45,285.7,404.27,283.78Z" transform="translate(0 0)"/><path class="cls-1" d="M362.63,286.94c-4.73-.33-9.81-.49-14.26,1.4-2.29,4.46-3.32,9.39-4.41,14.23l-.39,2.47c-.46,3.33-1.95,7.08-.26,10.26,4.29,1.24,8.88.7,13.24.07,2.23-.47,4.88-.78,6.3-2.79a73.73,73.73,0,0,0,8-14.32c1.18-2.76,2.59-5.51,2.83-8.55-.18-.31-.55-.91-.74-1.22C369.69,287,366.08,287.2,362.63,286.94Z" transform="translate(0 0)"/></g></g></svg>